<svg width="33" height="32" viewBox="0 0 33 32" fill="none" xmlns="http://www.w3.org/2000/svg">
<g clip-path="url(#clip0_2004_4202)">
<path d="M32.125 16C32.125 7.37055 25.1294 0.375 16.5 0.375C7.87055 0.375 0.875 7.37055 0.875 16C0.875 24.6294 7.87055 31.625 16.5 31.625C25.1294 31.625 32.125 24.6294 32.125 16Z" fill="url(#paint0_linear_2004_4202)"/>
<path d="M24.5 17.64C24.5 18.7033 24.3933 19.83 23.9167 20.8067C22.6533 23.36 19.18 23.3 16.6933 23.3C14.1667 23.3 10.4867 23.39 9.17333 20.8067C8.68667 19.84 8.5 18.7033 8.5 17.64C8.5 16.2433 8.96333 14.9233 9.88333 13.8533C9.71 13.3267 9.62667 12.7733 9.62667 12.2267C9.62667 11.51 9.79 11.15 10.1133 10.5C11.6233 10.5 12.59 10.8 13.74 11.7C14.7067 11.47 15.7 11.3667 16.6967 11.3667C17.5967 11.3667 18.5033 11.4633 19.3767 11.6733C20.51 10.7833 21.4767 10.5 22.97 10.5C23.2967 11.15 23.4567 11.51 23.4567 12.2267C23.4567 12.7733 23.37 13.3167 23.2 13.8333C24.1167 14.9133 24.5 16.2433 24.5 17.64Z" fill="url(#paint1_linear_2004_4202)"/>
<path fill-rule="evenodd" clip-rule="evenodd" d="M24.5889 21.1393L24.5907 21.1356C25.1433 20.0033 25.25 18.7378 25.25 17.64C25.25 16.2355 24.8956 14.8487 24.0276 13.6711C24.1465 13.1999 24.2067 12.7143 24.2067 12.2267C24.2067 11.3335 23.9837 10.8468 23.6401 10.1632L23.4325 9.75H22.97C22.1769 9.75 21.4786 9.82495 20.8101 10.0385C20.2422 10.2199 19.7239 10.4923 19.2027 10.8661C18.3764 10.6952 17.5315 10.6167 16.6967 10.6167C15.7661 10.6167 14.8325 10.7023 13.9141 10.893C13.3881 10.515 12.8666 10.2364 12.2945 10.0496C11.6213 9.82971 10.9176 9.75 10.1133 9.75H9.64874L9.44183 10.166C9.10433 10.8444 8.87667 11.3321 8.87667 12.2267C8.87667 12.7126 8.93446 13.2051 9.0549 13.6864C8.18538 14.8371 7.75 16.2087 7.75 17.64C7.75 18.7807 7.94874 20.0421 8.50343 21.1439L8.50477 21.1466C9.30809 22.7267 10.8174 23.4328 12.321 23.7554C13.713 24.0541 15.2322 24.0519 16.4333 24.0502L16.6933 24.05L16.8822 24.0501C18.0729 24.051 19.5673 24.0522 20.9301 23.7421C22.3813 23.412 23.8173 22.6987 24.5889 21.1393ZM23.4567 12.2267C23.4567 12.7733 23.37 13.3167 23.2 13.8333C24.1167 14.9133 24.5 16.2433 24.5 17.64C24.5 18.7033 24.3933 19.83 23.9167 20.8067C23.1901 22.2752 21.7325 22.8792 20.152 23.1275C20.467 23.0378 20.772 22.9245 21.0591 22.7819C21.6372 22.4947 22.1605 22.08 22.5354 21.4882C22.9111 20.8952 23.1067 20.1733 23.1067 19.3232C23.1067 18.4463 22.8407 17.5808 22.2949 16.9201C21.7372 16.2449 20.9139 15.8198 19.9067 15.8198C19.3479 15.8198 18.7963 15.9013 18.2984 15.9748C18.1748 15.9931 18.0546 16.0108 17.9383 16.0267L17.9256 16.0286C17.4746 16.0982 17.0172 16.1265 16.5367 16.1265C16.0598 16.1265 15.602 16.0983 15.147 16.0285L15.1366 16.027C15.0281 16.0119 14.9155 15.9951 14.7997 15.9779C14.2988 15.9035 13.7364 15.8198 13.1667 15.8198C12.1595 15.8198 11.3362 16.2449 10.7784 16.9201C10.2327 17.5808 9.96667 18.4463 9.96667 19.3232C9.96667 20.1729 10.1626 20.8943 10.5385 21.4871C10.9135 22.0785 11.4367 22.4932 12.0143 22.7805C12.2514 22.8984 12.5007 22.9964 12.7577 23.0775C11.2459 22.8011 9.87339 22.1837 9.17333 20.8067C8.68667 19.84 8.5 18.7033 8.5 17.64C8.5 16.2433 8.96333 14.9233 9.88333 13.8533C9.71 13.3267 9.62667 12.7733 9.62667 12.2267C9.62667 11.51 9.79 11.15 10.1133 10.5C11.6233 10.5 12.59 10.8 13.74 11.7C14.7067 11.47 15.7 11.3667 16.6967 11.3667C17.5967 11.3667 18.5033 11.4633 19.3767 11.6733C20.51 10.7833 21.4767 10.5 22.97 10.5C23.2967 11.15 23.4567 11.51 23.4567 12.2267ZM18.4346 16.7131C18.3041 16.7323 18.1727 16.7517 18.04 16.7698C17.5433 16.8465 17.0467 16.8765 16.5367 16.8765C16.03 16.8765 15.5333 16.8465 15.0333 16.7698C14.9106 16.7528 14.7883 16.7347 14.6663 16.7166C14.1688 16.6429 13.6753 16.5698 13.1667 16.5698C11.6067 16.5698 10.7167 17.8598 10.7167 19.3232C10.7167 22.2498 13.3967 22.6998 15.73 22.6998H17.3367C19.68 22.6998 22.3567 22.2532 22.3567 19.3232C22.3567 17.8598 21.4667 16.5698 19.9067 16.5698C19.4087 16.5698 18.9272 16.6406 18.4346 16.7131Z" fill="url(#paint2_linear_2004_4202)"/>
<path d="M13.48 21.1601C14.34 21.1601 14.7034 20.0201 14.7034 19.3235C14.7034 18.6268 14.34 17.4868 13.48 17.4868C12.62 17.4868 12.2567 18.6268 12.2567 19.3235C12.2567 20.0201 12.62 21.1601 13.48 21.1601Z" fill="white"/>
<path d="M18.38 19.3235C18.38 18.6268 18.7433 17.4868 19.6033 17.4868C20.4633 17.4868 20.8267 18.6268 20.8267 19.3235C20.8267 20.0201 20.4633 21.1601 19.6033 21.1601C18.7433 21.1601 18.38 20.0201 18.38 19.3235Z" fill="white"/>
<path d="M32.125 16C32.125 7.37055 25.1294 0.375 16.5 0.375C7.87055 0.375 0.875 7.37055 0.875 16C0.875 24.6294 7.87055 31.625 16.5 31.625C25.1294 31.625 32.125 24.6294 32.125 16Z" stroke="url(#paint3_linear_2004_4202)" stroke-width="0.75"/>
</g>
<defs>
<linearGradient id="paint0_linear_2004_4202" x1="32.2037" y1="32" x2="0.203693" y2="3.61703e-08" gradientUnits="userSpaceOnUse">
<stop stop-color="white" stop-opacity="0.15"/>
<stop offset="1" stop-opacity="0"/>
</linearGradient>
<linearGradient id="paint1_linear_2004_4202" x1="34.7857" y1="2.24261" x2="14.4921" y2="24.9798" gradientUnits="userSpaceOnUse">
<stop stop-color="white" stop-opacity="0"/>
<stop offset="0.333333" stop-color="white" stop-opacity="0"/>
<stop offset="0.666667" stop-color="white" stop-opacity="0"/>
<stop offset="1" stop-color="white" stop-opacity="0.3"/>
</linearGradient>
<linearGradient id="paint2_linear_2004_4202" x1="25.5417" y1="9.98834" x2="11.5278" y2="27.1376" gradientUnits="userSpaceOnUse">
<stop stop-color="white"/>
<stop offset="1" stop-color="white" stop-opacity="0.6"/>
</linearGradient>
<linearGradient id="paint3_linear_2004_4202" x1="32.2037" y1="1.54362e-07" x2="16.5" y2="32" gradientUnits="userSpaceOnUse">
<stop stop-color="white" stop-opacity="0.3"/>
<stop offset="1" stop-color="white" stop-opacity="0"/>
</linearGradient>
<clipPath id="clip0_2004_4202">
<rect width="32" height="32" fill="white" transform="translate(0.5)"/>
</clipPath>
</defs>
</svg>
