<svg width="33" height="32" viewBox="0 0 33 32" fill="none" xmlns="http://www.w3.org/2000/svg">
<g clip-path="url(#clip0_2004_4210)">
<path d="M32.125 16C32.125 7.37055 25.1294 0.375 16.5 0.375C7.87055 0.375 0.875 7.37055 0.875 16C0.875 24.6294 7.87055 31.625 16.5 31.625C25.1294 31.625 32.125 24.6294 32.125 16Z" fill="url(#paint0_linear_2004_4210)"/>
<path d="M13.375 13.5V13.125H13H10H9.625V13.5V22V22.375H10H13H13.375V22V13.5ZM19 22.375H19.375V22V17.296C19.375 16.8071 19.5327 16.4751 19.7366 16.267C19.9435 16.0559 20.2202 15.949 20.5 15.949C20.7798 15.949 21.0565 16.0559 21.2634 16.267C21.4673 16.4751 21.625 16.8071 21.625 17.296V22V22.375H22H24.9998H25.3748V22V17C25.3748 15.5813 24.98 14.4794 24.2727 13.7298C23.5638 12.9785 22.5825 12.625 21.5 12.625C20.6667 12.625 20.0583 12.8776 19.604 13.228C19.5223 13.291 19.4461 13.3568 19.375 13.4241V13.125H19H16H15.625V13.5V22V22.375H16H19ZM11.5 12.375C12.5355 12.375 13.375 11.5355 13.375 10.5C13.375 9.46447 12.5355 8.625 11.5 8.625C10.4645 8.625 9.625 9.46447 9.625 10.5C9.625 11.5355 10.4645 12.375 11.5 12.375Z" fill="url(#paint1_linear_2004_4210)" stroke="url(#paint2_linear_2004_4210)" stroke-width="0.75"/>
<path d="M32.125 16C32.125 7.37055 25.1294 0.375 16.5 0.375C7.87055 0.375 0.875 7.37055 0.875 16C0.875 24.6294 7.87055 31.625 16.5 31.625C25.1294 31.625 32.125 24.6294 32.125 16Z" stroke="url(#paint3_linear_2004_4210)" stroke-width="0.75"/>
</g>
<defs>
<linearGradient id="paint0_linear_2004_4210" x1="32.2037" y1="32" x2="0.203693" y2="3.61703e-08" gradientUnits="userSpaceOnUse">
<stop stop-color="white" stop-opacity="0.15"/>
<stop offset="1" stop-opacity="0"/>
</linearGradient>
<linearGradient id="paint1_linear_2004_4210" x1="34.6426" y1="0.613839" x2="13.9109" y2="22.0555" gradientUnits="userSpaceOnUse">
<stop stop-color="white" stop-opacity="0"/>
<stop offset="0.333333" stop-color="white" stop-opacity="0"/>
<stop offset="0.666667" stop-color="white" stop-opacity="0"/>
<stop offset="1" stop-color="white" stop-opacity="0.3"/>
</linearGradient>
<linearGradient id="paint2_linear_2004_4210" x1="25.2499" y1="9.21667" x2="12.3819" y2="24.0643" gradientUnits="userSpaceOnUse">
<stop stop-color="white"/>
<stop offset="1" stop-color="white" stop-opacity="0.6"/>
</linearGradient>
<linearGradient id="paint3_linear_2004_4210" x1="32.2037" y1="1.54362e-07" x2="16.5" y2="32" gradientUnits="userSpaceOnUse">
<stop stop-color="white" stop-opacity="0.3"/>
<stop offset="1" stop-color="white" stop-opacity="0"/>
</linearGradient>
<clipPath id="clip0_2004_4210">
<rect width="32" height="32" fill="white" transform="translate(0.5)"/>
</clipPath>
</defs>
</svg>
